<svg xmlns="http://www.w3.org/2000/svg" viewBox="0 0 112.67 112.67"><defs><style>.cls-1,.cls-2{fill:none;stroke:#706578;stroke-miterlimit:10;}.cls-2{stroke-width:2px;}</style></defs><g id="Layer_2" data-name="Layer 2"><g id="Layer_1-2" data-name="Layer 1"><path class="cls-1" d="M77.1,72.87l-3.84-22.3a4.05,4.05,0,0,0-4-3.36h-8.6a6.25,6.25,0,1,0-8.67,0H43.41a4,4,0,0,0-4,3.36l-3.85,22.3a2.85,2.85,0,0,0,2.81,3.34H74.29A2.85,2.85,0,0,0,77.1,72.87ZM51.84,42.71a4.5,4.5,0,1,1,4.5,4.5A4.5,4.5,0,0,1,51.84,42.71Z"/><path class="cls-1" d="M74.29,76.33H38.38a3,3,0,0,1-2.27-1,3,3,0,0,1-.66-2.43l3.85-22.3a4.15,4.15,0,0,1,4.11-3.46H51.7a6.38,6.38,0,1,1,9.27,0h8.3a4.16,4.16,0,0,1,4.11,3.46l3.84,22.3a3,3,0,0,1-2.93,3.48Zm-30.88-29a3.92,3.92,0,0,0-3.87,3.25L35.7,72.9a2.72,2.72,0,0,0,2.68,3.18H74.29A2.71,2.71,0,0,0,77,72.9L73.13,50.59a3.91,3.91,0,0,0-3.86-3.25H60.36l.22-.22a6,6,0,0,0,1.88-4.41,6.13,6.13,0,0,0-12.25,0,6.06,6.06,0,0,0,1.88,4.41l.22.22Zm12.93,0A4.63,4.63,0,1,1,61,42.71,4.64,4.64,0,0,1,56.34,47.34Zm0-9a4.38,4.38,0,1,0,4.37,4.37A4.38,4.38,0,0,0,56.34,38.34Z"/><circle class="cls-2" cx="56.34" cy="56.34" r="55.34"/></g></g></svg>