<svg xmlns="http://www.w3.org/2000/svg" viewBox="0 0 112.68 112.68"><defs><style>.cls-1{fill:#fbbebe;}.cls-2{opacity:0.1;isolation:isolate;}.cls-3{fill:#6c63ff;}.cls-4{fill:#706578;}.cls-5{fill:#3f3d56;}.cls-10,.cls-11,.cls-6,.cls-9{fill:none;}.cls-10,.cls-6,.cls-9{stroke:#3f3d56;}.cls-11,.cls-6{stroke-miterlimit:10;}.cls-7{fill:#57b894;}.cls-8{opacity:0.3;}.cls-9{stroke-miterlimit:10;}.cls-10{stroke-miterlimit:10;}.cls-11{stroke:#706578;stroke-width:2px;}</style></defs><g id="Layer_2" data-name="Layer 2"><g id="Layer_1-2" data-name="Layer 1"><path class="cls-1" d="M18.32,72.56s14.13-1.69,19.07-4.38,41.68-4,41.68,4.38-42.24,12-42.24,12L14.64,83.3Z"/><path class="cls-2" d="M18.32,72.56s14.13-1.69,19.07-4.38,41.68-4,41.68,4.38-42.24,12-42.24,12L14.64,83.3Z"/><path class="cls-3" d="M22.41,71l-.35,1-1.15,3.33-1.46,4.25h0l-3.56,0-6,.08h0Q8.66,77.41,7.68,75c-.39-1-.76-2-1.09-3,4.25-.48,15.07-1.61,15.81-.94Z"/><path class="cls-4" d="M22.41,71v0l-.35,1-1.14,3.33-1.46,4.25-3.56,0-6.05.08Q8.66,77.41,7.68,75c-.39-1-.76-2-1.09-3,0,0,0,0,0,0C10.86,71.45,21.74,70.31,22.41,71Z"/><path class="cls-5" d="M75.56,67.41c0,.48-1.08.84-1.18,1.3s.53,1.16.33,1.6A9.16,9.16,0,0,1,74,71.6c-.27.38-1.09.33-1.43.68a11.1,11.1,0,0,1-1,.91c-.36.3-.84.36-1.25.64s-.34,1.21-.77,1.45-1,0-1.48.25-.65.9-1.1,1.07-1,.1-1.44.24-1,.12-1.43.23-.8.8-1.28.89-1-.14-1.48-.08-1-.52-1.49-.48-.92.32-1.4.34S57.44,78,57,78s-1,.45-1.45.43-.92-.7-1.39-.75-1,.67-1.52.61-.86-.77-1.32-.86-1.09.41-1.55.29-.75-.93-1.19-1.07-1,0-1.48-.12-1-.14-1.44-.34-.76-.68-1.17-.91-.62-.82-1-1.08-1-.24-1.38-.54S41,73.3,40.66,73a9.15,9.15,0,0,1-.74-1.33c-.28-.41.27-1.25.07-1.68s-1.05-.62-1.16-1.08a7.17,7.17,0,0,1-.16-1.46c0-.48.72-.85.83-1.32s-.43-1.12-.23-1.56.18-1.08.46-1.48.93-.53,1.26-.88.89-.44,1.27-.75.31-1.19.72-1.47.92-.38,1.35-.61,1-.19,1.43-.4,1.09.19,1.55,0,.79-.53,1.25-.67.66-1.21,1.13-1.33,1,.08,1.5,0,1.08.75,1.56.68.82-1.19,1.3-1.23,1,.53,1.48.51.95.32,1.43.32,1-.47,1.44-.45.9.64,1.37.69,1.07-.9,1.54-.83.85.79,1.31.88,1.07-.35,1.53-.24.75.89,1.2,1,.75.69,1.19.85,1.3-.63,1.72-.44.83.56,1.24.79,1.11.11,1.49.37.51,1,.87,1.31,1,.41,1.31.75.39,1,.65,1.37a7.85,7.85,0,0,1,.47,1.39c.2.44.75.77.85,1.23A7.11,7.11,0,0,1,75.56,67.41Z"/><path class="cls-1" d="M24.68,76.24S40.64,68,51,71.15s24.72-2.26,26.42-.42,4.1,21.61-16.25,22.75a137,137,0,0,1-37.73-3.4Z"/><path class="cls-4" d="M26.93,77.22c-.1.81-.2,3.55-.37,6.76-.1,2.18-.24,4.57-.44,6.72-.31,3.61-.77,6.55-1.45,6.73a2.86,2.86,0,0,1-.45.07s0,0,0,0A55.3,55.3,0,0,1,9.85,79.74h0Q8.66,77.41,7.68,75c2.35,0,6.69,0,9.79.08a17.93,17.93,0,0,1,3.44.33,15.22,15.22,0,0,1,4.7.42C26.44,76.05,27,76.5,26.93,77.22Z"/><path class="cls-6" d="M50.44,33a3.23,3.23,0,0,0-2.79,2c-.7,1.7.2,3.68,1.55,4.92a26.66,26.66,0,0,0,4.67,2.86A12.54,12.54,0,0,1,59,47.92,7.68,7.68,0,0,1,58.88,55c-1.15,2-3.26,3.14-5.27,4.23"/><path class="cls-6" d="M56.1,22.68a3.24,3.24,0,0,0-2.8,2c-.7,1.69.2,3.68,1.55,4.91a26.12,26.12,0,0,0,4.67,2.87,12.48,12.48,0,0,1,5.09,5.19,7.69,7.69,0,0,1-.07,7.08c-1.16,2-3.27,3.15-5.28,4.23"/><path class="cls-6" d="M74.68,25.05a3.25,3.25,0,0,0-3.41-.16c-1.59.91-2.1,3-1.78,4.83a26.12,26.12,0,0,0,1.94,5.13,12.54,12.54,0,0,1,.84,7.22,7.71,7.71,0,0,1-4.39,5.56c-2.12.84-4.51.49-6.76.11"/><ellipse class="cls-7" cx="58.3" cy="44.73" rx="3.39" ry="1.65"/><ellipse class="cls-6" cx="57.88" cy="44.45" rx="3.39" ry="1.65"/><ellipse class="cls-7" cx="65.65" cy="43.32" rx="3.39" ry="1.65"/><ellipse class="cls-6" cx="65.23" cy="43.03" rx="3.39" ry="1.65"/><ellipse class="cls-7" cx="66.78" cy="49.53" rx="3.39" ry="1.65"/><ellipse class="cls-6" cx="66.36" cy="49.25" rx="3.39" ry="1.65"/><ellipse class="cls-7" cx="66.07" cy="33.99" rx="3.39" ry="1.65"/><ellipse class="cls-6" cx="65.65" cy="33.71" rx="3.39" ry="1.65"/><ellipse class="cls-7" cx="57.6" cy="33" rx="3.39" ry="1.65"/><ellipse class="cls-6" cx="57.17" cy="32.72" rx="3.39" ry="1.65"/><ellipse class="cls-7" cx="61.41" cy="29.47" rx="3.39" ry="1.65"/><ellipse class="cls-6" cx="60.99" cy="29.19" rx="3.39" ry="1.65"/><ellipse class="cls-7" cx="69.75" cy="30.18" rx="3.39" ry="1.65"/><ellipse class="cls-6" cx="69.32" cy="29.89" rx="3.39" ry="1.65"/><ellipse class="cls-7" cx="75.96" cy="34.84" rx="3.39" ry="1.65"/><ellipse class="cls-6" cx="75.54" cy="34.56" rx="3.39" ry="1.65"/><ellipse class="cls-7" cx="54.06" cy="26.64" rx="3.39" ry="1.65"/><ellipse class="cls-6" cx="53.64" cy="26.36" rx="3.39" ry="1.65"/><ellipse class="cls-7" cx="56.18" cy="21.28" rx="3.39" ry="1.65"/><ellipse class="cls-6" cx="55.76" cy="20.99" rx="3.39" ry="1.65"/><ellipse class="cls-7" cx="75.82" cy="25.23" rx="3.39" ry="1.65"/><ellipse class="cls-6" cx="75.4" cy="24.95" rx="3.39" ry="1.65"/><ellipse class="cls-7" cx="44.6" cy="38.23" rx="3.39" ry="1.65"/><ellipse class="cls-6" cx="44.17" cy="37.95" rx="3.39" ry="1.65"/><ellipse class="cls-7" cx="56.33" cy="37.38" rx="3.39" ry="1.65"/><ellipse class="cls-6" cx="55.9" cy="37.1" rx="3.39" ry="1.65"/><ellipse class="cls-7" cx="71.73" cy="38.65" rx="3.39" ry="1.65"/><ellipse class="cls-6" cx="71.3" cy="38.37" rx="3.39" ry="1.65"/><ellipse class="cls-7" cx="63.53" cy="39.22" rx="3.39" ry="1.65"/><ellipse class="cls-6" cx="63.11" cy="38.94" rx="3.39" ry="1.65"/><ellipse class="cls-7" cx="64.1" cy="25.09" rx="3.39" ry="1.65"/><ellipse class="cls-6" cx="63.67" cy="24.81" rx="3.39" ry="1.65"/><ellipse class="cls-7" cx="49.54" cy="33.85" rx="3.39" ry="1.65"/><ellipse class="cls-6" cx="49.12" cy="33.57" rx="3.39" ry="1.65"/><ellipse class="cls-7" cx="51.52" cy="40.21" rx="3.39" ry="1.65"/><ellipse class="cls-6" cx="51.1" cy="39.93" rx="3.39" ry="1.65"/><g class="cls-8"><ellipse class="cls-7" cx="50.93" cy="51.08" rx="1.78" ry="0.77" transform="translate(-18.51 70.62) rotate(-60.8)"/><ellipse class="cls-9" cx="50.71" cy="51.21" rx="1.78" ry="0.77" transform="translate(-18.73 70.49) rotate(-60.8)"/></g><g class="cls-8"><ellipse class="cls-7" cx="67.95" cy="54.38" rx="0.77" ry="1.78" transform="translate(-17.88 68.75) rotate(-48.17)"/><ellipse class="cls-10" cx="67.87" cy="54.13" rx="0.77" ry="1.78" transform="translate(-17.72 68.61) rotate(-48.17)"/></g><g class="cls-8"><ellipse class="cls-7" cx="52.13" cy="45.47" rx="0.77" ry="1.78" transform="translate(-16.52 53.99) rotate(-48.17)"/><ellipse class="cls-10" cx="52.05" cy="45.23" rx="0.77" ry="1.78" transform="translate(-16.36 53.85) rotate(-48.17)"/></g><path class="cls-11" d="M111.68,56.34A55.33,55.33,0,0,1,21.41,99.25s0,0,0,0A55.3,55.3,0,0,1,7,81.49H7Q5.85,79.16,4.87,76.7c-.39-1-.76-2-1.09-3,0,0,0,0,0,0a55.34,55.34,0,1,1,107.9-17.34Z"/></g></g></svg>