<svg xmlns="http://www.w3.org/2000/svg" viewBox="0 0 112.67 112.67"><defs><style>.cls-1,.cls-2,.cls-3{fill:none;stroke:#706578;stroke-width:2px;}.cls-1,.cls-2{stroke-miterlimit:10;}.cls-2,.cls-3{stroke-linecap:round;}.cls-3{stroke-linejoin:round;}</style></defs><g id="Layer_2" data-name="Layer 2"><g id="Layer_1-2" data-name="Layer 1"><path class="cls-1" d="M72.71,43.35V65.92H55.1a5.05,5.05,0,0,0-9.67,0H42.79a3.1,3.1,0,0,1-3.1-3.11V43.35a3.1,3.1,0,0,1,3.1-3.1H69.61A3.1,3.1,0,0,1,72.71,43.35Z"/><path class="cls-1" d="M92,56.28v7a2.64,2.64,0,0,1-2.64,2.63H87.19a5.06,5.06,0,0,0-9.68,0h-4.8V46.64H84.65L88,51Z"/><path class="cls-1" d="M55.32,67.38a5.05,5.05,0,0,1-10.1,0,5.36,5.36,0,0,1,.21-1.46,5.05,5.05,0,0,1,9.67,0A5,5,0,0,1,55.32,67.38Z"/><path class="cls-1" d="M87.4,67.38a5.05,5.05,0,0,1-10.1,0,5.36,5.36,0,0,1,.21-1.46,5.06,5.06,0,0,1,9.68,0A5.36,5.36,0,0,1,87.4,67.38Z"/><polyline class="cls-1" points="84.65 46.65 87.98 51.02 91.99 56.28"/><path class="cls-1" d="M92,56.28V59H83.23A3.28,3.28,0,0,1,80,55.71V54.3A3.28,3.28,0,0,1,83.23,51H88Z"/><line class="cls-2" x1="45.22" y1="47.09" x2="51.21" y2="53.08"/><line class="cls-3" x1="45.22" y1="59.07" x2="51.21" y2="53.08"/><line class="cls-2" x1="53.2" y1="47.09" x2="59.19" y2="53.08"/><line class="cls-3" x1="53.2" y1="59.07" x2="59.19" y2="53.08"/><line class="cls-2" x1="61.03" y1="47.09" x2="67.02" y2="53.08"/><line class="cls-3" x1="61.03" y1="59.07" x2="67.02" y2="53.08"/><line class="cls-3" x1="36.04" y1="46.61" x2="21.8" y2="46.61"/><line class="cls-3" x1="36.04" y1="59.56" x2="21.8" y2="59.56"/><line class="cls-3" x1="36.04" y1="53.08" x2="14.69" y2="53.08"/><circle class="cls-1" cx="56.34" cy="56.34" r="55.34"/></g></g></svg>