<svg xmlns="http://www.w3.org/2000/svg" viewBox="0 0 112.67 112.67"><defs><style>.cls-1,.cls-2{fill:#706578;}.cls-2{opacity:0.2;isolation:isolate;}.cls-3{fill:none;stroke:#706578;stroke-miterlimit:10;stroke-width:2px;}</style></defs><g id="Layer_2" data-name="Layer 2"><g id="Layer_1-2" data-name="Layer 1"><path class="cls-1" d="M26.3,58.42a1.57,1.57,0,0,0-.73-2.1l-.26-.1L25,50.64l-2.32,1.75.68,5a1.58,1.58,0,0,0,3,1Z"/><polygon class="cls-1" points="36.43 80.38 38.28 80.91 41.2 74.04 38.47 73.26 36.43 80.38"/><path class="cls-1" d="M41.34,83.64,35.54,82h0l.65-2.24h0l3.56,1a2.32,2.32,0,0,1,1.59,2.88Z"/><polygon class="cls-1" points="33.48 86.69 31.55 86.69 30.64 79.28 33.48 79.28 33.48 86.69"/><path class="cls-1" d="M30.18,86.14h3.71v2.33h-6a2.33,2.33,0,0,1,2.33-2.33Z"/><path class="cls-1" d="M28.16,56.49S27.07,60.88,29,69.8l1.41,15.35,3.6.16-.47-16.6,1.25-6.89,3.13,9.55L36.78,78.1l2.66,1.26,3-9.24s-.32-12.84-1.57-14.41Z"/><circle class="cls-1" cx="32.71" cy="27.67" r="3.85"/><path class="cls-1" d="M30.67,33.51s-.23.52,2.58.2,3.45-1.25,3.45-1.25l4.93,21.63L41.32,56l-13.47.8V54.09L30.2,39.73Z"/><path class="cls-1" d="M31.82,56.26l-4.27-.08v-.06a22.34,22.34,0,0,1,.16-9c.86-3.82-1.1-9-2-11a1.09,1.09,0,0,1,.44-1.37l3-1.81a1.53,1.53,0,0,1,2.11.53,1.38,1.38,0,0,1,.18.41L32,35.94c2.44,2.62,2.27,8,1.69,12a56.26,56.26,0,0,1-1.84,8.23Z"/><path class="cls-1" d="M27,34.33l-.37.26a4.61,4.61,0,0,0-1.78,2.34,10.19,10.19,0,0,0-.43,1.71c-.32,1.88-1.73,9.87-1.73,9.87l-.62,7.83,3.44-.79,1.57-9.08,1.56-5.64Z"/><path class="cls-1" d="M39.24,56.3l0-.09c-.22-.62-5.45-15.25-3-20.4L36,33.39a1.57,1.57,0,0,1,1.4-1.72,1.48,1.48,0,0,1,.63.07l3.78,1.19a.75.75,0,0,1,.53.74,73.26,73.26,0,0,1-.46,7.8C41.4,45,43,53.89,43,54V54Z"/><path class="cls-1" d="M37.58,52.41a1.56,1.56,0,0,1,1.6-1.54,1.27,1.27,0,0,1,.28,0l2.83-4.83,1.28,2.6-2.88,4.19a1.58,1.58,0,0,1-3.11-.45Z"/><path class="cls-1" d="M41.24,32.93l.2,0a1.57,1.57,0,0,1,1.11,1L46,43.34,42,52.27l-1.49-3.68,1.88-4.08L39,40.21Z"/><path class="cls-1" d="M36.61,28.2a9.81,9.81,0,0,0,.5-1.76,3.26,3.26,0,0,0-.21-1.8,4,4,0,0,0-1.06-1.27,11.17,11.17,0,0,0-1-.71c-.93-.62-1.13-.06-2.25-.18s-2.37-.45-3.26.22a3.67,3.67,0,0,0-1.32,3.86c.25.85.05,1.13.82,1.58a3,3,0,0,1,.82-2.05,3.11,3.11,0,0,1,2-1,6.22,6.22,0,0,1,1.77.21,4.61,4.61,0,0,1,1.62.57,4.52,4.52,0,0,1,1.49,2.34"/><polygon class="cls-1" points="84.06 88.41 86.22 88.16 86.3 79.71 83.11 80.08 84.06 88.41"/><path class="cls-1" d="M90.62,89.7l-6.79.77h0l-.3-2.63h0l4.16-.47a2.66,2.66,0,0,1,2.93,2.33Z"/><polygon class="cls-1" points="61.84 88.28 64.01 88.27 65.05 79.89 61.84 79.89 61.84 88.28"/><path class="cls-1" d="M68.21,90.29H61.37V87.65h4.2a2.64,2.64,0,0,1,2.64,2.64Z"/><path class="cls-1" d="M77.44,50.77l1.24,4,6.74,14.59L87.2,83.23l-4.08.17L80.63,70.63l-8.51-9.22L64.67,85.53l-3.37-.35S64.14,54,68,50.77C68,50.77,74.43,47.75,77.44,50.77Z"/><circle class="cls-1" cx="71.93" cy="28.98" r="4.36"/><path class="cls-1" d="M77.88,51.56S78.42,33.47,71,34.71s-4.35,18.72-4.35,18.72,1.6,3.19,5.5-.36S77.88,51.56,77.88,51.56Z"/><polygon class="cls-2" points="67.6 42.34 69.35 49.06 72.02 51.73 68.31 50.5 67.6 42.34"/><path class="cls-1" d="M77.94,59.22a1.79,1.79,0,0,1-1.07-2.29,2.39,2.39,0,0,1,.13-.28l-4.14-4.8,3.27-.43L79.56,56a1.8,1.8,0,0,1-1.62,3.18Z"/><path class="cls-1" d="M72.9,38.4l.46,9.17,5.5,7.1-2.31,1.77L69.1,49s-2.66-9-.7-11.7a2.52,2.52,0,0,1,2.26-1.23A2.45,2.45,0,0,1,72.9,38.4Z"/><path class="cls-1" d="M71.42,33.56a.18.18,0,0,0,0-.25l0,0a2.52,2.52,0,0,1-.82-3.48,2.58,2.58,0,0,1,1.06-1c1.29-.61,3-.13,4-1.31A2.18,2.18,0,0,0,76,25.74a3.9,3.9,0,0,0-2-2.5A7.17,7.17,0,0,0,63.2,30.18c.12,1.07.45,2.26-.18,3.13a4,4,0,0,1-2.54,1.1,9.53,9.53,0,0,0-5.25,2.85,6.65,6.65,0,0,0-1.66,5.63,5.13,5.13,0,0,0,4,4,5.53,5.53,0,0,0,4.51-1.57,9.63,9.63,0,0,0,2.43-4.25c.57-1.87.79-3.89,1.81-5.56s3.16-2.81,4.85-2a.18.18,0,0,0,.21,0Z"/><circle class="cls-3" cx="56.34" cy="56.34" r="55.34"/></g></g></svg>