<svg xmlns="http://www.w3.org/2000/svg" viewBox="0 0 112.68 112.68"><defs><style>.cls-1,.cls-4{fill:none;stroke-miterlimit:10;}.cls-1{stroke:#706578;stroke-width:2px;}.cls-2{fill:#706578;}.cls-3{fill:#58525e;opacity:0.5;}.cls-4{stroke:#fff;stroke-linecap:round;stroke-width:3px;}</style></defs><g id="Layer_2" data-name="Layer 2"><g id="Layer_1-2" data-name="Layer 1"><path class="cls-1" d="M111.68,56.34A55.33,55.33,0,0,1,21.41,99.25s0,0,0,0A55.3,55.3,0,0,1,7,81.49H7Q5.85,79.16,4.87,76.7c-.39-1-.76-2-1.09-3,0,0,0,0,0,0a55.34,55.34,0,1,1,107.9-17.34Z"/><path class="cls-2" d="M74.13,65.8a17.79,17.79,0,1,1-35.58,0c0-5.44,3.28-10.78,7.43-17.53a114.56,114.56,0,0,0,9.93-18.89.46.46,0,0,1,.86,0A114.56,114.56,0,0,0,66.7,48.27C70.85,55,74.13,60.36,74.13,65.8Z"/><path class="cls-3" d="M56.34,29.09c-8.25,26.81-11,47.83,0,54.5A17.81,17.81,0,0,1,38.55,65.8c0-5.44,3.28-10.78,7.43-17.53a114.56,114.56,0,0,0,9.93-18.89A.46.46,0,0,1,56.34,29.09Z"/><path class="cls-4" d="M70.92,66.54s1,7.21-5,10.26"/></g></g></svg>