<svg xmlns="http://www.w3.org/2000/svg" viewBox="0 0 112.68 112.86"><defs><style>.cls-1{isolation:isolate;}.cls-11,.cls-2{fill:none;}.cls-3{fill:#c28330;}.cls-4{fill:#dea650;}.cls-5{fill:#dfa750;}.cls-6{fill:#dea64f;}.cls-7{fill:#dfa751;}.cls-8{fill:#c38530;}.cls-9{fill:#d6a14d;}.cls-10{fill:#d5a04c;}.cls-11{stroke:#706578;stroke-miterlimit:10;stroke-width:2px;}.cls-12{fill:#fff;mix-blend-mode:soft-light;}</style></defs><g class="cls-1"><g id="Layer_2" data-name="Layer 2"><g id="Layer_1-2" data-name="Layer 1"><path class="cls-2" d="M100.25,56A520,520,0,0,1,6.54,65.11q1.13,8.48,2.24,17-1.12-8.48-2.24-17A520,520,0,0,0,100.25,56Z"/><path class="cls-3" d="M63.16,2.57a55.58,55.58,0,0,0-6.49-.39h-.33Q54.6,3.38,52.83,4.5C40,12.69,26,18.77,12,24.88a54.1,54.1,0,0,0-3.64,5.67C26.15,23.18,43.52,15,59.91,4.72,61,4,62.09,3.31,63.16,2.57Z"/><path class="cls-3" d="M100.25,56c3.88-.75,7.74-1.55,11.61-2.39-.1-1.38-.24-2.75-.44-4.1-13.25,3-26.59,5.59-40.1,7.46q-6,.82-12.11,1.39C41.7,60,24.13,60.21,6.6,61.19c-1.72,0-3.43.11-5.13.2.09,1.32.23,2.62.41,3.9,1.55-.08,3.1-.15,4.66-.18A520,520,0,0,0,100.25,56Z"/><path class="cls-3" d="M13.52,50.09l7.94-1.22,15.86-2.45c10.58-1.61,21.16-3.17,31.77-4.54a138,138,0,0,0,36.6-10c-.66-1.27-1.37-2.5-2.13-3.71-19,8-39.19,10.68-59.51,13.3C31.71,43,19.42,45,7.1,46.79c-1.62.23-3.24.49-4.85.74C2,49,1.77,50.39,1.62,51.84c1.32-.18,2.64-.38,4-.55Q9.57,50.71,13.52,50.09Z"/><path class="cls-4" d="M7.1,46.79C19.42,45,31.71,43,44.05,41.44c20.32-2.62,40.49-5.29,59.51-13.3A55.65,55.65,0,0,0,89,12.64c-3.38,1.4-6.75,2.14-9-1.39a5.78,5.78,0,0,1-1-4.34,55.36,55.36,0,0,0-15.9-4.34C62.09,3.31,61,4,59.91,4.72,43.52,15,26.15,23.18,8.36,30.55a53,53,0,0,0-2.43,4.89C5.81,39.28,4.73,43.21,7.1,46.79Z"/><path class="cls-5" d="M9.88,87a55.32,55.32,0,0,0,11.85,13.39h0A55.31,55.31,0,0,0,39.22,110,112,112,0,0,1,56.33,97.83a72.93,72.93,0,0,1,9.77-4.62,110.44,110.44,0,0,1,15.51-4.67A101.64,101.64,0,0,1,104,86.16a55,55,0,0,0,6.65-16.6C79.76,75.8,48.82,82,17.42,85.43A58.19,58.19,0,0,0,9.88,87Z"/><path class="cls-4" d="M37.32,46.42,21.46,48.87l-7.94,1.22q-4,.61-7.93,1.2c.34,3.3.67,6.6,1,9.9,17.53-1,35.1-1.21,52.61-2.85q6.06-.57,12.11-1.39c13.51-1.87,26.85-4.48,40.1-7.46a54.8,54.8,0,0,0-5.73-17.64,138,138,0,0,1-36.6,10C58.48,43.25,47.9,44.81,37.32,46.42Z"/><path class="cls-6" d="M6.54,65.11q1.13,8.48,2.24,17c26.66-2.91,53.16-7,79.49-12.08,7.74-1.5,15.46-3.08,23.19-4.67a57.14,57.14,0,0,0,.55-7.79c0-1.32-.06-2.63-.15-3.93-3.87.84-7.73,1.64-11.61,2.39A520,520,0,0,1,6.54,65.11Z"/><path class="cls-7" d="M56.67,112.86a55.26,55.26,0,0,0,44.4-22.31c-20.5.63-39.56,7-56.72,20.93A55.58,55.58,0,0,0,56.67,112.86Z"/><path class="cls-4" d="M52.83,4.5q1.77-1.12,3.51-2.31A55.24,55.24,0,0,0,12,24.88C26,18.77,40,12.69,52.83,4.5Z"/><path class="cls-8" d="M88.27,70C61.94,75.07,35.44,79.15,8.78,82.06l-1.4.63C8.15,84.19,9,85.63,9.88,87a58.19,58.19,0,0,1,7.54-1.61C48.82,82,79.76,75.8,110.68,69.56c.31-1.4.57-2.81.78-4.25C103.73,66.9,96,68.48,88.27,70Z"/><path class="cls-8" d="M66.1,93.21a72.93,72.93,0,0,0-9.77,4.62A112,112,0,0,0,39.22,110c1.67.55,3.38,1,5.13,1.44,17.16-13.92,36.22-20.3,56.72-20.93q1.58-2.11,3-4.39a101.64,101.64,0,0,0-22.42,2.38A110.44,110.44,0,0,0,66.1,93.21Z"/><path class="cls-8" d="M80,11.25c2.25,3.53,5.62,2.79,9,1.39a55.5,55.5,0,0,0-10-5.73A5.78,5.78,0,0,0,80,11.25Z"/><path class="cls-9" d="M6.54,65.11c-1.56,0-3.11.1-4.66.18a55.07,55.07,0,0,0,2.23,9.57s0,0,0,0c.33,1,.7,2,1.09,3q1,2.46,2.16,4.78s0,0,0,0v0l1.4-.63Q7.65,73.58,6.54,65.11Z"/><path class="cls-10" d="M5.93,35.44A55,55,0,0,0,2.25,47.53c1.61-.25,3.23-.51,4.85-.74C4.73,43.21,5.81,39.28,5.93,35.44Z"/><path class="cls-10" d="M5.59,51.29c-1.33.17-2.65.37-4,.55a56.1,56.1,0,0,0-.29,5.68c0,1.3.06,2.59.14,3.87,1.7-.09,3.41-.16,5.13-.2C6.26,57.89,5.93,54.59,5.59,51.29Z"/><path class="cls-11" d="M111.68,56.34A55.3,55.3,0,0,1,21.41,99.25s0,0,0,0A55.3,55.3,0,0,1,7,81.49H7Q5.85,79.16,4.87,76.7c-.39-1-.76-2-1.09-3,0,0,0,0,0,0l-.06-.19a55.36,55.36,0,0,1,81-64.7,55.34,55.34,0,0,1,27,47.55Z"/><path class="cls-12" d="M107.73,35.79C104.36,38,100.48,40.45,96,43c-24.7,14-30.23,24.64-41.91,37.3C48,86.93,39.8,97.59,32.71,106.39a55.87,55.87,0,0,1-11.3-7.14s0,0,0,0A55.3,55.3,0,0,1,7,81.49H7Q5.85,79.16,4.87,76.7c-.39-1-.76-2-1.09-3,0,0,0,0,0,0l-.06-.19C8.9,64.4,17.89,57,32.39,49.49,52.8,38.86,75.06,23.4,84.68,8.79A55.56,55.56,0,0,1,107.73,35.79Z"/></g></g></g></svg>