<svg xmlns="http://www.w3.org/2000/svg" viewBox="0 0 112.68 112.68"><defs><style>.cls-1{fill:none;stroke:#706578;stroke-miterlimit:10;stroke-width:2px;}.cls-2{fill:#d6dbdb;}.cls-3{fill:#fba324;}.cls-4{fill:#c16500;}.cls-5{opacity:0.16;}</style></defs><g id="Layer_2" data-name="Layer 2"><g id="Layer_1-2" data-name="Layer 1"><path class="cls-1" d="M111.68,56.34A55.33,55.33,0,0,1,21.41,99.25s0,0,0,0A55.3,55.3,0,0,1,7,81.49H7Q5.85,79.16,4.87,76.7c-.39-1-.76-2-1.09-3,0,0,0,0,0,0a55.34,55.34,0,1,1,107.9-17.34Z"/><path class="cls-2" d="M94.78,42.84,94.22,46l-2.88-.55L90.86,48l-2.78-.41-.45,2.2-2.95-.65-.52,2.16-2.79-.46-.45,2.42-3-.5-.39,2.18-3-.24L74.11,57l-2.88-.56-.35,2-2.94-.24-.54,2.51-2.85-.38L64,62.62l-2.57-.41-.42,2.4L58,64l-.51,2.19-2.82-.46-.36,2-2.85-.47L51,69.76l-3-.41-.51,2.06-3-.62L44,73.19l-3-.31-.46,2.61-3.53-3,1.22-2.66.57-1.23c1.2-2.64,2.6-5.78,2.84-6.57a4.37,4.37,0,0,0,.09-1.06c0-2.82-1-9.48-1-9.48h0L91.62,37.19l2,3.68Z"/><path class="cls-3" d="M40.68,51.46a11.84,11.84,0,0,0-3.11.86c-.58.46-2.36,2.32-2.36,2.32s-3.89-.56-5-.67-4.09,2.27-4.09,2.27a28,28,0,0,0-2.88.5c-.93.26-.75,2.58-.29,2.75a33,33,0,0,1,2.8,1.76l1.59,5.25L28.11,69a7.21,7.21,0,0,1-.8,1.58c-.5.74-.73,3.7-.73,3.7l2,.34,2.59-1.09a6.9,6.9,0,0,0,2.13,0A16.11,16.11,0,0,0,37,72.46l1.51-.29,4.1-10.68-.16-.83-1.78-9.21ZM35.39,68l-4.22,1.18-2.72-9.7,4.22-1.18Z"/><circle class="cls-4" cx="39.87" cy="53.72" r="0.73"/><circle class="cls-4" cx="40.95" cy="61.65" r="0.73"/><circle class="cls-4" cx="38.27" cy="69.08" r="0.73"/><path class="cls-5" d="M94.78,42.84,94.22,46l-2.88-.55L90.86,48l-2.78-.41-.45,2.2-2.95-.65-.52,2.16-2.79-.46-.45,2.42-3-.5-.39,2.18-3-.24L74.11,57l-2.88-.56-.35,2-2.94-.24-.54,2.51-2.85-.38L64,62.62l-2.57-.41-.42,2.4L58,64l-.51,2.19-2.82-.46-.36,2-2.85-.47L51,69.76l-3-.41-.51,2.06-3-.62L44,73.19l-3-.31-.46,2.61-3.53-3a16.11,16.11,0,0,1-3.73,1.05,6.9,6.9,0,0,1-2.13,0L28.56,74.6l-2-.34s.23-3,.73-3.7a7.21,7.21,0,0,0,.8-1.58l-.75-2.48,2.77-1.08,1,3.71L35.39,68l-1.15-4.11,6-2.32h0l1.16-.45.33-.13.73-.28L93.67,40.87Z"/></g></g></svg>