<svg xmlns="http://www.w3.org/2000/svg" viewBox="0 0 112.68 112.68"><defs><style>.cls-1,.cls-4{fill:none;stroke-miterlimit:10;}.cls-1{stroke:#706578;stroke-width:2px;}.cls-2{fill:#706578;}.cls-3{fill:#58525e;opacity:0.5;}.cls-4{stroke:#fff;stroke-linecap:round;stroke-width:3px;}</style></defs><g id="Layer_2" data-name="Layer 2"><g id="Layer_1-2" data-name="Layer 1"><path class="cls-1" d="M111.68,56.34A55.33,55.33,0,0,1,21.41,99.25s0,0,0,0A55.3,55.3,0,0,1,7,81.49H7Q5.85,79.16,4.87,76.7c-.39-1-.76-2-1.09-3,0,0,0,0,0,0a55.34,55.34,0,1,1,107.9-17.34Z"/><path class="cls-2" d="M79.45,68.63a23.11,23.11,0,0,1-46.22,0c0-7.07,4.26-14,9.66-22.78,4.27-6.94,9.1-14.8,12.89-24.53a.6.6,0,0,1,1.12,0c3.79,9.73,8.62,17.59,12.89,24.53C75.19,54.63,79.45,61.56,79.45,68.63Z"/><path class="cls-3" d="M56.34,20.94c-10.71,34.83-14.24,62.13,0,70.8A23.14,23.14,0,0,1,33.23,68.63c0-7.07,4.26-14,9.66-22.78,4.27-6.94,9.1-14.8,12.89-24.53A.6.6,0,0,1,56.34,20.94Z"/><path class="cls-4" d="M75.28,69.59S76.62,79,68.81,82.92"/></g></g></svg>