<svg xmlns="http://www.w3.org/2000/svg" viewBox="0 0 112.67 112.67"><defs><style>.cls-1,.cls-2,.cls-3{fill:none;stroke:#706578;stroke-width:2px;}.cls-1,.cls-2{stroke-miterlimit:10;}.cls-2,.cls-3{stroke-linecap:round;}.cls-3{stroke-linejoin:round;}</style></defs><g id="Layer_2" data-name="Layer 2"><g id="Layer_1-2" data-name="Layer 1"><path class="cls-1" d="M80.93,39.85V68.5H58.58a6.41,6.41,0,0,0-12.27,0H43A3.93,3.93,0,0,1,39,64.56V39.85A3.93,3.93,0,0,1,43,35.92H77A3.94,3.94,0,0,1,80.93,39.85Z"/><path class="cls-1" d="M105.39,56.27v8.89a3.35,3.35,0,0,1-3.34,3.34H99.3A6.41,6.41,0,0,0,87,68.5H80.93V44H96.08l4.22,5.55Z"/><path class="cls-1" d="M58.85,70.35a6.41,6.41,0,1,1-12.81,0,6.32,6.32,0,0,1,.27-1.85,6.41,6.41,0,0,1,12.27,0A6.67,6.67,0,0,1,58.85,70.35Z"/><path class="cls-1" d="M99.57,70.35a6.41,6.41,0,0,1-12.82,0A6.67,6.67,0,0,1,87,68.5a6.41,6.41,0,0,1,12.28,0A6.67,6.67,0,0,1,99.57,70.35Z"/><polyline class="cls-1" points="96.08 44.04 100.3 49.59 105.39 56.27"/><path class="cls-1" d="M105.39,56.27V59.7H94.27a4.16,4.16,0,0,1-4.16-4.16V53.75a4.16,4.16,0,0,1,4.16-4.16h6Z"/><line class="cls-2" x1="46.04" y1="44.61" x2="53.64" y2="52.21"/><line class="cls-3" x1="46.04" y1="59.81" x2="53.64" y2="52.21"/><line class="cls-2" x1="56.17" y1="44.61" x2="63.77" y2="52.21"/><line class="cls-3" x1="56.17" y1="59.81" x2="63.77" y2="52.21"/><line class="cls-2" x1="66.1" y1="44.61" x2="73.7" y2="52.21"/><line class="cls-3" x1="66.1" y1="59.81" x2="73.7" y2="52.21"/><line class="cls-3" x1="34.38" y1="43.99" x2="16.31" y2="43.99"/><line class="cls-3" x1="34.38" y1="60.43" x2="16.31" y2="60.43"/><line class="cls-3" x1="34.38" y1="52.21" x2="7.28" y2="52.21"/><circle class="cls-1" cx="56.34" cy="56.34" r="55.34"/></g></g></svg>