<svg xmlns="http://www.w3.org/2000/svg" viewBox="0 0 112.67 112.67"><defs><style>.cls-1{fill:none;stroke:#706578;stroke-miterlimit:10;stroke-width:2px;}.cls-2{fill:#706578;}.cls-3{fill:#333;}.cls-4{opacity:0.1;}.cls-4,.cls-6{isolation:isolate;}.cls-5{fill:#fdb797;}.cls-6{opacity:0.2;}.cls-7{fill:#2f2e41;}</style></defs><g id="Layer_2" data-name="Layer 2"><g id="Layer_1-2" data-name="Layer 1"><circle class="cls-1" cx="56.34" cy="56.34" r="55.34"/><path class="cls-2" d="M80.47,81.93a31.55,31.55,0,0,0,17.42-5.21C96.73,70.33,92.28,70,92.28,70H67.77s-4.2.35-5.51,6.22A31.55,31.55,0,0,0,80.47,81.93Z"/><circle class="cls-3" cx="80.13" cy="49.44" r="15.3"/><path class="cls-4" d="M75.19,62.18H85V70a4.91,4.91,0,0,1-4.9,4.9h0A4.9,4.9,0,0,1,75.2,70h0V62.18h0Z"/><path class="cls-5" d="M75.51,61.82h9.18a.31.31,0,0,1,.31.31h0v7.53a4.9,4.9,0,0,1-4.9,4.91h0a4.9,4.9,0,0,1-4.9-4.9h0V62.13A.31.31,0,0,1,75.51,61.82Z"/><path class="cls-4" d="M75.21,65.89a14.09,14.09,0,0,0,9.81,0v-1.2H75.21Z"/><circle class="cls-5" cx="80.13" cy="52.49" r="14.05"/><path class="cls-4" d="M70.12,39.71s5.93,12,22.63,5l-3.89-6.1L82,36.17Z"/><path class="cls-3" d="M70.12,39.53s5.93,12,22.63,5l-3.89-6.1L82,36Z"/><path class="cls-3" d="M70.07,38.72a8.19,8.19,0,0,1,2-3.28c2.77-2.73,7.3-3.31,9.62-6.42a1.81,1.81,0,0,1-.83,2.56c2.23,0,4.81-.2,6.06-2a4.15,4.15,0,0,1-.7,4.4c2,.09,4.09,1.43,4.21,3.4a3.93,3.93,0,0,1-1.82,3.31A10,10,0,0,1,85,42C81.2,42.86,67.62,46.33,70.07,38.72Z"/><ellipse class="cls-5" cx="66.07" cy="52.48" rx="1.31" ry="2.45"/><ellipse class="cls-5" cx="94.18" cy="52.48" rx="1.31" ry="2.45"/><path class="cls-6" d="M48.16,39.67a12.9,12.9,0,0,1-.74,6.63,12.94,12.94,0,0,1-3-6,13,13,0,0,1,.75-6.63A12.87,12.87,0,0,1,48.16,39.67Z"/><path class="cls-7" d="M47.17,69.6l.11.06C47.27,69.79,47.24,69.87,47.17,69.6Z"/><path class="cls-7" d="M47.32,69.64v0l0,0s0,0,0,0S47.29,69.26,47.32,69.64Z"/><circle class="cls-7" cx="34.77" cy="49.15" r="15.87"/><circle class="cls-5" cx="36.08" cy="54.76" r="9.61"/><path class="cls-5" d="M58,73.18h0l-2.24.53-4.65,1.12-.64.15-7.07,1.7-.61.14L25.63,81a34.42,34.42,0,0,1-3.39-1.53l0,0-.18-.1c-.14-.07-.28-.14-.41-.22q-1.16-.63-2.25-1.35l-.55-.38-.18-.12-.18-.13L18,76.77c1.67-3,5.64-5,9.62-6.15,3-.83,3.65-3.57,3.6-6A15.48,15.48,0,0,0,31.05,63a17.5,17.5,0,0,0-.58-2.58l9.61.32,1,2.28a6.49,6.49,0,0,0,0,.76,4.55,4.55,0,0,0,2.66,3.87c.18.1.37.19.56.28A15,15,0,0,0,49.37,69a9.66,9.66,0,0,1,2.52,0,5.59,5.59,0,0,1,.59.11,8.48,8.48,0,0,1,3.11,1.39,8.81,8.81,0,0,1,1,.83A7.93,7.93,0,0,1,58,73.18Z"/><path class="cls-7" d="M59.46,74.45l-.12.11a33.18,33.18,0,0,1-2.67,2.2c-.63.46-1.27.89-1.92,1.31l-.44.27-.76.45c-.34.2-.68.38-1,.56l-.42.22-.62.31-.11.05L51,79.59l4.8-5.87,1-1.18s.38,0,1.27.65a12,12,0,0,1,1.38,1.19Z"/><path class="cls-7" d="M59.39,74.38a1.21,1.21,0,0,1,0,.18,33.18,33.18,0,0,1-2.67,2.2,11.87,11.87,0,0,1-2.49.59s.07.36.13,1l-.76.45c-.34.2-.68.38-1,.56l-.42.22-.62.31-.11.05-.41.19a31.32,31.32,0,0,1-5.55,2h0l-.38.09-.28.07h0l-.58.13-.33.07-.2,0-.26,0-.14,0-.31.06-.55.08-.39.06-.46.06-.13,0-.17,0-.33,0-.17,0-.33,0-.43,0-.52,0-.34,0q-.44,0-.87,0h-.87a32.27,32.27,0,0,1-4.39-.3,29.65,29.65,0,0,1-3.15-.58l-.13,0-.31-.08-.27-.07a31.84,31.84,0,0,1-6.82-2.62l0,0-.18-.1c5.3-1.24,13.68-3.19,21-4.86l.61-.13,7.33-1.68.65-.14c2.28-.51,4.06-.91,5-1.1a6.86,6.86,0,0,1,.79-.14l2,3.12Z"/><circle class="cls-7" cx="20.25" cy="37.67" r="4.73"/><circle class="cls-7" cx="49.29" cy="36.32" r="4.73"/><path class="cls-7" d="M44.22,34.29a4.71,4.71,0,0,1,4.22-4.69,4.72,4.72,0,1,0-1,9.39,4.35,4.35,0,0,0,1,0A4.72,4.72,0,0,1,44.22,34.29Z"/><path class="cls-7" d="M15,41.49a4.72,4.72,0,0,1-.27-6.31,4.73,4.73,0,0,0,5.84,7.44,5.52,5.52,0,0,0,.73-.72A4.72,4.72,0,0,1,15,41.49Z"/><path class="cls-7" d="M34.77,41.72c-5.59,0-10.13,2.65-10.13,5.91a4.8,4.8,0,0,0,2.42,3.83L29,50l-.53,2.22c.22.1.44.2.68.29l2.91-3.4v4.18a17.35,17.35,0,0,0,2.7.21c5.59,0,10.13-2.65,10.13-5.91S40.36,41.72,34.77,41.72Z"/><path class="cls-7" d="M44.56,36.32s-.73,3.38,3.85,4.73Z"/><path class="cls-7" d="M24.64,36.93s1.69,3.78-3.38,5.47Z"/><ellipse class="cls-5" cx="26.63" cy="56.69" rx="0.8" ry="1.92" transform="translate(-14.3 9.28) rotate(-15.64)"/><ellipse class="cls-5" cx="45.85" cy="55.08" rx="1.92" ry="0.8" transform="translate(-11.95 97.46) rotate(-86.48)"/></g></g></svg>