<svg xmlns="http://www.w3.org/2000/svg" viewBox="0 0 112.67 112.67"><defs><style>.cls-1{fill:#fff;}.cls-1,.cls-2{stroke:#706578;stroke-miterlimit:10;}.cls-2{fill:none;stroke-width:2px;}</style></defs><g id="Layer_2" data-name="Layer 2"><g id="Layer_1-2" data-name="Layer 1"><path class="cls-1" d="M85.5,79.57,80.1,48.24a5.68,5.68,0,0,0-5.6-4.72H62.43a8.78,8.78,0,1,0-12.18,0H38.18a5.69,5.69,0,0,0-5.61,4.72l-5.4,31.33a4,4,0,0,0,3.95,4.68H81.56A4,4,0,0,0,85.5,79.57ZM50,37.2a6.32,6.32,0,1,1,6.32,6.32A6.32,6.32,0,0,1,50,37.2Z"/><path class="cls-1" d="M81.56,84.43H31.12A4.18,4.18,0,0,1,27,79.54l5.4-31.33a5.85,5.85,0,0,1,5.78-4.86H49.83a9,9,0,1,1,13,0H74.5a5.85,5.85,0,0,1,5.78,4.86l5.4,31.33a4.19,4.19,0,0,1-4.12,4.89ZM38.18,43.7a5.49,5.49,0,0,0-5.43,4.57L27.34,79.6a3.85,3.85,0,0,0,3.78,4.48H81.56a3.82,3.82,0,0,0,3.77-4.48l-5.4-31.33A5.5,5.5,0,0,0,74.5,43.7H62l.31-.31a8.51,8.51,0,0,0,2.64-6.19,8.61,8.61,0,0,0-17.21,0,8.51,8.51,0,0,0,2.64,6.19l.31.31Zm18.16,0a6.5,6.5,0,1,1,6.49-6.5A6.51,6.51,0,0,1,56.34,43.7Zm0-12.64a6.15,6.15,0,1,0,6.14,6.14A6.15,6.15,0,0,0,56.34,31.06Z"/><circle class="cls-2" cx="56.34" cy="56.34" r="55.34"/></g></g></svg>