<svg xmlns="http://www.w3.org/2000/svg" viewBox="0 0 110.68 110.68"><defs><style>.cls-1{fill:none;}.cls-2{fill:#c28330;}.cls-3{fill:#dea650;}.cls-4{fill:#dfa750;}.cls-5{fill:#dea64f;}.cls-6{fill:#dfa751;}.cls-7{fill:#c38530;}.cls-8{fill:#d6a14d;}.cls-9{fill:#d5a04c;}</style></defs><g id="Layer_2" data-name="Layer 2"><g id="Layer_1-2" data-name="Layer 1"><path class="cls-1" d="M98.92,53.8A520.1,520.1,0,0,1,5.21,62.93q1.13,8.48,2.24,16.95Q6.33,71.41,5.21,62.93A520.1,520.1,0,0,0,98.92,53.8Z"/><path class="cls-2" d="M61.83.39A55.58,55.58,0,0,0,55.34,0H55Q53.27,1.2,51.5,2.32C38.62,10.51,24.63,16.59,10.67,22.69A54.32,54.32,0,0,0,7,28.37C24.82,21,42.19,12.79,58.57,2.54,59.68,1.85,60.76,1.13,61.83.39Z"/><path class="cls-2" d="M98.92,53.8c3.88-.75,7.74-1.56,11.61-2.4-.1-1.38-.24-2.74-.44-4.09-13.25,3-26.59,5.59-40.1,7.45q-6.06.84-12.11,1.4C40.37,57.8,22.8,58,5.27,59c-1.72,0-3.43.11-5.13.2.09,1.32.23,2.62.41,3.9C2.1,63,3.65,63,5.21,62.93A520.1,520.1,0,0,0,98.92,53.8Z"/><path class="cls-2" d="M12.19,47.91l7.93-1.22L36,44.24c10.57-1.61,21.16-3.17,31.77-4.54a138.33,138.33,0,0,0,36.6-10c-.66-1.27-1.38-2.5-2.13-3.71C83.2,34,63,36.64,42.72,39.26c-12.34,1.59-24.63,3.55-36.95,5.35-1.62.23-3.24.49-4.85.74C.66,46.77.44,48.2.29,49.66c1.32-.18,2.64-.38,4-.55C6.9,48.72,9.55,48.32,12.19,47.91Z"/><path class="cls-3" d="M5.77,44.61c12.32-1.8,24.61-3.76,37-5.35C63,36.64,83.2,34,102.23,26a55.52,55.52,0,0,0-14.54-15.5c-3.38,1.4-6.75,2.14-9-1.39a5.82,5.82,0,0,1-1-4.34A55,55,0,0,0,61.83.39c-1.07.74-2.15,1.46-3.26,2.15C42.19,12.79,24.82,21,7,28.37Q5.7,30.74,4.59,33.26C4.47,37.1,3.4,41,5.77,44.61Z"/><path class="cls-4" d="M8.55,84.86A55.3,55.3,0,0,0,20.4,98.25s0,0,0,0a55,55,0,0,0,17.47,9.6A113.19,113.19,0,0,1,55,95.65,72.93,72.93,0,0,1,64.77,91a110.44,110.44,0,0,1,15.51-4.67A101.64,101.64,0,0,1,102.7,84a55.13,55.13,0,0,0,6.65-16.6C78.43,73.61,47.49,79.76,16.09,83.25A56.58,56.58,0,0,0,8.55,84.86Z"/><path class="cls-3" d="M36,44.24,20.12,46.69l-7.93,1.22c-2.64.41-5.29.81-7.93,1.2q.5,4.95,1,9.9c17.53-1,35.1-1.21,52.61-2.85q6.06-.57,12.11-1.4c13.51-1.86,26.85-4.48,40.1-7.45a54.8,54.8,0,0,0-5.73-17.64,138.33,138.33,0,0,1-36.6,10C57.15,41.07,46.56,42.63,36,44.24Z"/><path class="cls-5" d="M5.21,62.93q1.13,8.48,2.24,16.95C34.11,77,60.6,72.89,86.94,67.8c7.74-1.5,15.46-3.08,23.18-4.67a55.69,55.69,0,0,0,.56-7.79c0-1.32-.06-2.63-.15-3.94-3.87.84-7.73,1.65-11.61,2.4A520.1,520.1,0,0,1,5.21,62.93Z"/><path class="cls-6" d="M55.34,110.68a55.26,55.26,0,0,0,44.4-22.31C79.23,89,60.18,95.37,43,109.3A55.52,55.52,0,0,0,55.34,110.68Z"/><path class="cls-3" d="M51.5,2.32Q53.27,1.2,55,0A55.22,55.22,0,0,0,10.67,22.69C24.63,16.59,38.62,10.51,51.5,2.32Z"/><path class="cls-7" d="M86.94,67.8C60.6,72.89,34.11,77,7.45,79.88l-1.4.63c.77,1.5,1.61,2.94,2.5,4.35a56.58,56.58,0,0,1,7.54-1.61c31.4-3.49,62.34-9.64,93.26-15.87.31-1.4.57-2.82.77-4.25C102.4,64.72,94.68,66.3,86.94,67.8Z"/><path class="cls-7" d="M64.77,91A72.93,72.93,0,0,0,55,95.65a113.19,113.19,0,0,0-17.12,12.2c1.68.56,3.39,1.05,5.14,1.45C60.18,95.37,79.23,89,99.74,88.37q1.58-2.12,3-4.39a101.64,101.64,0,0,0-22.42,2.38A110.44,110.44,0,0,0,64.77,91Z"/><path class="cls-7" d="M78.68,9.07c2.26,3.53,5.63,2.79,9,1.39a55.5,55.5,0,0,0-10-5.73A5.82,5.82,0,0,0,78.68,9.07Z"/><path class="cls-8" d="M5.21,62.93c-1.56,0-3.11.1-4.66.18a55.29,55.29,0,0,0,2.23,9.57s0,0,0,0c.33,1,.7,2,1.09,3q1,2.46,2.16,4.78H6v0l1.4-.63Q6.33,71.41,5.21,62.93Z"/><path class="cls-9" d="M4.59,33.26A55.33,55.33,0,0,0,.92,45.35c1.61-.25,3.23-.51,4.85-.74C3.4,41,4.47,37.1,4.59,33.26Z"/><path class="cls-9" d="M4.26,49.11c-1.33.17-2.65.37-4,.55A56.1,56.1,0,0,0,0,55.34c0,1.3.05,2.59.14,3.87,1.7-.09,3.41-.16,5.13-.2Q4.76,54.06,4.26,49.11Z"/></g></g></svg>